<?xml version="1.0" encoding="utf-8"?>
<!-- Svg Vector Icons : http://www.onlinewebfonts.com/icon -->
<!DOCTYPE svg PUBLIC "-//W3C//DTD SVG 1.1//EN" "http://www.w3.org/Graphics/SVG/1.1/DTD/svg11.dtd">
<svg version="1.1" xmlns="http://www.w3.org/2000/svg" xmlns:xlink="http://www.w3.org/1999/xlink" x="0" y="0" viewBox="0 0 1000 1000" enable-background="new 0 0 1000 1000" xml:space="preserve">
<metadata> Svg Vector Icons : http://www.onlinewebfonts.com/icon </metadata>
<g><g><path fill="#FFF" d="M988.1,710c-6.5-20-27.9-30.9-47.9-24.4l-49.4,16.1C921.1,639.1,937,570.3,937,500c0-255.6-207.9-463.5-463.5-463.5C217.9,36.5,10,244.4,10,500c0,255.6,207.9,463.5,463.5,463.5c21,0,38-17,38-38c0-21-17-38-38-38C259.8,887.5,86,713.7,86,500c0-213.7,173.8-387.5,387.5-387.5C687.2,112.5,861,286.3,861,500c0,58.9-13.3,116.5-38.7,168.9l-16.9-52c-6.5-19.9-27.9-30.9-47.9-24.4c-20,6.5-30.9,27.9-24.4,47.9L778,778.3c5.2,16.1,20.1,26.3,36.1,26.3c3.9,0,7.8-0.6,11.7-1.9l137.9-44.8C983.7,751.4,994.6,730,988.1,710z"/></g><g></g><g></g><g></g><g></g><g></g><g></g><g></g><g></g><g></g><g></g><g></g><g></g><g></g><g></g><g></g></g>
</svg>